<mxfile host="app.diagrams.net" modified="2021-10-30T13:40:02.815Z" agent="5.0 (Windows NT 10.0; Win64; x64) AppleWebKit/537.36 (KHTML, like Gecko) Chrome/95.0.4638.54 Safari/537.36" etag="DIv1XFdDWICqKgWF0d1n" version="15.5.9" type="github">
  <diagram id="CvHTvN6L_SXHQpTo5I2b" name="Page-1">
    <mxGraphModel dx="782" dy="436" grid="1" gridSize="10" guides="1" tooltips="1" connect="1" arrows="1" fold="1" page="1" pageScale="1" pageWidth="850" pageHeight="1100" math="0" shadow="0">
      <root>
        <mxCell id="0" />
        <mxCell id="1" parent="0" />
        <mxCell id="8L2hsu4X7SzYl6PJxOzP-15" value="" style="edgeStyle=orthogonalEdgeStyle;rounded=0;orthogonalLoop=1;jettySize=auto;html=1;fontSize=17;" edge="1" parent="1" source="8L2hsu4X7SzYl6PJxOzP-1">
          <mxGeometry relative="1" as="geometry">
            <mxPoint x="120" y="160" as="targetPoint" />
          </mxGeometry>
        </mxCell>
        <mxCell id="8L2hsu4X7SzYl6PJxOzP-1" value="&lt;font style=&quot;font-size: 17px&quot;&gt;&amp;lt;p&amp;gt;&lt;/font&gt;" style="text;html=1;align=center;verticalAlign=middle;resizable=0;points=[];autosize=1;strokeColor=#9673a6;fillColor=#e1d5e7;" vertex="1" parent="1">
          <mxGeometry x="100" y="220" width="40" height="20" as="geometry" />
        </mxCell>
        <mxCell id="8L2hsu4X7SzYl6PJxOzP-2" value="&lt;font style=&quot;font-size: 17px&quot;&gt;&amp;lt;/p&amp;gt;&lt;/font&gt;" style="text;html=1;align=center;verticalAlign=middle;resizable=0;points=[];autosize=1;strokeColor=#9673a6;fillColor=#e1d5e7;" vertex="1" parent="1">
          <mxGeometry x="500" y="220" width="50" height="20" as="geometry" />
        </mxCell>
        <mxCell id="8L2hsu4X7SzYl6PJxOzP-6" value="HTML&amp;nbsp; is not a programming language" style="rounded=0;whiteSpace=wrap;html=1;fontSize=17;strokeWidth=3;fillColor=#dae8fc;strokeColor=#6c8ebf;opacity=50;" vertex="1" parent="1">
          <mxGeometry x="150" y="200" width="340" height="60" as="geometry" />
        </mxCell>
        <mxCell id="8L2hsu4X7SzYl6PJxOzP-9" value="" style="endArrow=classic;startArrow=classic;html=1;rounded=0;fontSize=17;exitX=0.5;exitY=1;exitDx=0;exitDy=0;fillColor=#dae8fc;strokeColor=#6c8ebf;" edge="1" parent="1" source="8L2hsu4X7SzYl6PJxOzP-6">
          <mxGeometry width="50" height="50" relative="1" as="geometry">
            <mxPoint x="380" y="250" as="sourcePoint" />
            <mxPoint x="320" y="320" as="targetPoint" />
          </mxGeometry>
        </mxCell>
        <mxCell id="8L2hsu4X7SzYl6PJxOzP-11" value="Content" style="text;html=1;align=center;verticalAlign=middle;resizable=0;points=[];autosize=1;strokeColor=none;fillColor=none;fontSize=17;" vertex="1" parent="1">
          <mxGeometry x="285" y="325" width="70" height="30" as="geometry" />
        </mxCell>
        <mxCell id="8L2hsu4X7SzYl6PJxOzP-13" value="" style="endArrow=classic;html=1;rounded=0;fontSize=17;exitX=0.413;exitY=0.033;exitDx=0;exitDy=0;exitPerimeter=0;" edge="1" parent="1" source="8L2hsu4X7SzYl6PJxOzP-2">
          <mxGeometry width="50" height="50" relative="1" as="geometry">
            <mxPoint x="520" y="210" as="sourcePoint" />
            <mxPoint x="520" y="160" as="targetPoint" />
          </mxGeometry>
        </mxCell>
        <mxCell id="8L2hsu4X7SzYl6PJxOzP-16" value="Opening Tag" style="text;html=1;strokeColor=none;fillColor=none;align=center;verticalAlign=middle;whiteSpace=wrap;rounded=0;fontSize=17;opacity=50;" vertex="1" parent="1">
          <mxGeometry x="90" y="120" width="60" height="30" as="geometry" />
        </mxCell>
        <mxCell id="8L2hsu4X7SzYl6PJxOzP-17" value="Closing Tag" style="text;html=1;strokeColor=none;fillColor=none;align=center;verticalAlign=middle;whiteSpace=wrap;rounded=0;fontSize=17;opacity=50;" vertex="1" parent="1">
          <mxGeometry x="490" y="120" width="60" height="30" as="geometry" />
        </mxCell>
        <mxCell id="8L2hsu4X7SzYl6PJxOzP-18" value="" style="endArrow=classic;startArrow=classic;html=1;rounded=0;fontSize=17;" edge="1" parent="1">
          <mxGeometry width="50" height="50" relative="1" as="geometry">
            <mxPoint x="90" y="400" as="sourcePoint" />
            <mxPoint x="560" y="400" as="targetPoint" />
          </mxGeometry>
        </mxCell>
        <mxCell id="8L2hsu4X7SzYl6PJxOzP-19" value="Element" style="text;html=1;strokeColor=none;fillColor=none;align=center;verticalAlign=middle;whiteSpace=wrap;rounded=0;fontSize=17;opacity=50;" vertex="1" parent="1">
          <mxGeometry x="290" y="440" width="60" height="30" as="geometry" />
        </mxCell>
        <mxCell id="8L2hsu4X7SzYl6PJxOzP-20" value="HTML&amp;nbsp; is not a programming language" style="rounded=0;whiteSpace=wrap;html=1;fontSize=17;strokeWidth=3;fillColor=#dae8fc;strokeColor=#6c8ebf;opacity=50;" vertex="1" parent="1">
          <mxGeometry x="200" y="610" width="340" height="60" as="geometry" />
        </mxCell>
        <mxCell id="8L2hsu4X7SzYl6PJxOzP-21" value="&lt;font style=&quot;font-size: 17px&quot;&gt;&amp;lt;p class =&quot;strong&quot;&amp;gt;&lt;/font&gt;" style="text;html=1;align=center;verticalAlign=middle;resizable=0;points=[];autosize=1;strokeColor=#9673a6;fillColor=#e1d5e7;" vertex="1" parent="1">
          <mxGeometry x="15" y="630" width="160" height="20" as="geometry" />
        </mxCell>
        <mxCell id="8L2hsu4X7SzYl6PJxOzP-22" value="&lt;font style=&quot;font-size: 17px&quot;&gt;&amp;lt;/p&amp;gt;&lt;/font&gt;" style="text;html=1;align=center;verticalAlign=middle;resizable=0;points=[];autosize=1;strokeColor=#9673a6;fillColor=#e1d5e7;" vertex="1" parent="1">
          <mxGeometry x="560" y="630" width="50" height="20" as="geometry" />
        </mxCell>
        <mxCell id="8L2hsu4X7SzYl6PJxOzP-23" value="" style="endArrow=classic;startArrow=classic;html=1;rounded=0;fontSize=17;" edge="1" parent="1">
          <mxGeometry width="50" height="50" relative="1" as="geometry">
            <mxPoint x="50" y="660" as="sourcePoint" />
            <mxPoint x="160" y="660" as="targetPoint" />
          </mxGeometry>
        </mxCell>
        <mxCell id="8L2hsu4X7SzYl6PJxOzP-24" value="" style="endArrow=none;html=1;rounded=0;fontSize=17;" edge="1" parent="1">
          <mxGeometry width="50" height="50" relative="1" as="geometry">
            <mxPoint x="100" y="680" as="sourcePoint" />
            <mxPoint x="100" y="660" as="targetPoint" />
          </mxGeometry>
        </mxCell>
        <mxCell id="8L2hsu4X7SzYl6PJxOzP-25" value="Attribute" style="text;html=1;strokeColor=none;fillColor=none;align=center;verticalAlign=middle;whiteSpace=wrap;rounded=0;fontSize=17;opacity=50;" vertex="1" parent="1">
          <mxGeometry x="70" y="680" width="60" height="30" as="geometry" />
        </mxCell>
      </root>
    </mxGraphModel>
  </diagram>
</mxfile>
